<?xml version="1.0" encoding="iso-8859-1"?>
<!-- Generator: Adobe Illustrator 19.0.0, SVG Export Plug-In . SVG Version: 6.00 Build 0)  -->
<svg version="1.1" id="Layer_1" xmlns="http://www.w3.org/2000/svg" xmlns:xlink="http://www.w3.org/1999/xlink" x="0px" y="0px"
	 viewBox="0 0 512.126 512.126" style="enable-background:new 0 0 512.126 512.126;" xml:space="preserve">
<g>
	<g>
		<path d="M508.156,425.424c-21.504-24.465-141.67-66.261-155.307-70.955c-1.766-0.606-3.686-0.614-5.487-0.017
			c-15.761,5.291-29.56,7.979-42.214,8.209c-11.102,0.307-27.366-1.715-40.892-11.981c-12.433-9.438-20.07-25.327-26.266-39.492
			c-8.508-19.439-17.553-38.844-26.308-57.617l-8.875-19.055c-12.45-26.888-23.1-51.465-32.538-75.127
			c-19.55-49.007-50.517-85.154-67.234-102.34c-11.896-12.22-31.369-13.218-44.348-2.261c-3.371,2.842-6.664,5.769-9.873,8.789
			c-20.54,19.302-34.295,38.366-42.061,58.3c-10.359,26.564-6.571,57.114-3.226,84.07l0.154,1.254
			c3.149,25.361,5.146,51.43,6.904,74.428c2.219,29.141,3.908,58.675,5.026,87.757l0.597,14.396
			c0.435,10.061,0.879,20.224,1.067,30.123c0.102,5.257,0.06,20.506,0.026,31.812l-0.026,10.692c0,4.71,3.814,8.533,8.533,8.533
			h34.133c4.71,0,8.525-4.207,8.533-8.917c0.008-6.955,0.162-103.97,0-144.717c-0.017-4.727-0.094-8.883-0.154-12.672
			c-0.29-16.896-0.435-25.378,4.71-44.996c2.321-8.849,6.4-16.188,10.163-18.244c0.845-0.469,1.911-0.819,3.695-0.239
			c7.031,2.253,13.244,12.937,17.425,20.113c5.564,9.557,10.769,20.693,16.384,35.055c0.23,0.572,0.828,2.227,1.741,4.753
			c29.082,79.607,50.398,126.754,63.36,140.117c18.347,18.901,44.288,29.747,71.16,29.747h107.699
			c62.106-0.742,137.907-5.615,146.355-24.585C512.055,438.028,513.847,431.901,508.156,425.424z"/>
	</g>
</g>
<g>
</g>
<g>
</g>
<g>
</g>
<g>
</g>
<g>
</g>
<g>
</g>
<g>
</g>
<g>
</g>
<g>
</g>
<g>
</g>
<g>
</g>
<g>
</g>
<g>
</g>
<g>
</g>
<g>
</g>
</svg>
